<?xml version="1.0" encoding="UTF-8" standalone="no"?>
<svg width="1800" height="3200" xmlns="http://www.w3.org/2000/svg" style="background:#f9f9f9">
  <!-- Home -->
  <g id="home" transform="translate(40,40)">
    <rect x="0" y="0" width="500" height="600" fill="#fff" stroke="#333" stroke-width="2"/>
    <text x="20" y="30" font-size="24" font-family="Arial" fill="#333">Home</text>
    <rect x="20" y="50" width="460" height="100" fill="#e0e0e0" stroke="#aaa"/>
    <text x="30" y="90" font-size="16">Carrusel</text>
    <rect x="20" y="170" width="460" height="40" fill="#d0eaff" stroke="#aaa"/>
    <text x="30" y="195" font-size="14">Barra rápida (contacto, WhatsApp, agenda)</text>
    <rect x="20" y="230" width="460" height="80" fill="#f0e0ff" stroke="#aaa"/>
    <text x="30" y="270" font-size="14">Público objetivo</text>
    <rect x="20" y="330" width="460" height="200" fill="#ffe0e0" stroke="#aaa"/>
    <text x="30" y="370" font-size="14">Servicios principales</text>
  </g>
  <!-- Servicios -->
  <g id="servicios" transform="translate(600,40)">
    <rect x="0" y="0" width="500" height="600" fill="#fff" stroke="#333" stroke-width="2"/>
    <text x="20" y="30" font-size="24" font-family="Arial" fill="#333">Servicios</text>
    <rect x="20" y="50" width="460" height="40" fill="#e0e0e0" stroke="#aaa"/>
    <text x="30" y="75" font-size="16">Título</text>
    <rect x="20" y="110" width="140" height="160" fill="#f0f0f0" stroke="#aaa"/>
    <rect x="180" y="110" width="140" height="160" fill="#f0f0f0" stroke="#aaa"/>
    <rect x="340" y="110" width="140" height="160" fill="#f0f0f0" stroke="#aaa"/>
    <text x="30" y="140" font-size="12">Servicio 1</text>
    <text x="190" y="140" font-size="12">Servicio 2</text>
    <text x="350" y="140" font-size="12">Servicio 3</text>
  </g>
  <!-- Oficinas -->
  <g id="oficinas" transform="translate(40,700)">
    <rect x="0" y="0" width="500" height="300" fill="#fff" stroke="#333" stroke-width="2"/>
    <text x="20" y="30" font-size="24" font-family="Arial" fill="#333">Oficinas</text>
    <rect x="20" y="50" width="220" height="200" fill="#f0f0f0" stroke="#aaa"/>
    <rect x="260" y="50" width="220" height="200" fill="#f0f0f0" stroke="#aaa"/>
    <text x="30" y="80" font-size="12">Oficina 1</text>
    <text x="270" y="80" font-size="12">Oficina 2</text>
  </g>
  <!-- Login -->
  <g id="login" transform="translate(600,700)">
    <rect x="0" y="0" width="500" height="300" fill="#fff" stroke="#333" stroke-width="2"/>
    <text x="20" y="30" font-size="24" font-family="Arial" fill="#333">Login</text>
    <rect x="120" y="60" width="260" height="180" fill="#f0f0f0" stroke="#aaa"/>
    <text x="140" y="100" font-size="14">Formulario de login</text>
  </g>
  <!-- Nosotros -->
  <g id="nosotros" transform="translate(40,1050)">
    <rect x="0" y="0" width="500" height="400" fill="#fff" stroke="#333" stroke-width="2"/>
    <text x="20" y="30" font-size="24" font-family="Arial" fill="#333">Nosotros</text>
    <rect x="20" y="50" width="300" height="120" fill="#e0e0e0" stroke="#aaa"/>
    <text x="30" y="90" font-size="14">Hero: título y descripción</text>
    <rect x="340" y="50" width="120" height="120" fill="#f0e0ff" stroke="#aaa"/>
    <text x="350" y="90" font-size="12">Card visual</text>
    <rect x="20" y="190" width="440" height="60" fill="#ffe0e0" stroke="#aaa"/>
    <text x="30" y="220" font-size="14">Botones: Contáctanos, Ver servicios</text>
  </g>
  <!-- Contacto -->
  <g id="contacto" transform="translate(600,1100)">
    <rect x="0" y="0" width="500" height="400" fill="#fff" stroke="#333" stroke-width="2"/>
    <text x="20" y="30" font-size="24" font-family="Arial" fill="#333">Contacto</text>
    <rect x="20" y="50" width="220" height="300" fill="#e0e0e0" stroke="#aaa"/>
    <text x="30" y="90" font-size="14">Info contacto</text>
    <rect x="260" y="50" width="220" height="300" fill="#f0f0f0" stroke="#aaa"/>
    <text x="270" y="90" font-size="14">Formulario</text>
  </g>
  <!-- Blog -->
  <g id="blog" transform="translate(40,1500)">
    <rect x="0" y="0" width="500" height="400" fill="#fff" stroke="#333" stroke-width="2"/>
    <text x="20" y="30" font-size="24" font-family="Arial" fill="#333">Blog</text>
    <rect x="20" y="50" width="460" height="60" fill="#e0e0e0" stroke="#aaa"/>
    <text x="30" y="90" font-size="14">Formulario crear blog</text>
    <rect x="20" y="130" width="140" height="120" fill="#f0f0f0" stroke="#aaa"/>
    <rect x="180" y="130" width="140" height="120" fill="#f0f0f0" stroke="#aaa"/>
    <rect x="340" y="130" width="140" height="120" fill="#f0f0f0" stroke="#aaa"/>
    <text x="30" y="160" font-size="12">Blog 1</text>
    <text x="190" y="160" font-size="12">Blog 2</text>
    <text x="350" y="160" font-size="12">Blog 3</text>
  </g>
  <!-- Videos -->
  <g id="videos" transform="translate(600,1550)">
    <rect x="0" y="0" width="500" height="200" fill="#fff" stroke="#333" stroke-width="2"/>
    <text x="20" y="30" font-size="24" font-family="Arial" fill="#333">Videos</text>
    <rect x="20" y="50" width="460" height="120" fill="#e0e0e0" stroke="#aaa"/>
    <text x="30" y="110" font-size="14">Reproductor de video</text>
  </g>
</svg>
