<?xml version="1.0" encoding="UTF-8"?><svg id="Capa_1" xmlns="http://www.w3.org/2000/svg" viewBox="0 0 400 400"><defs><style>.cls-1{fill:#fff;}.cls-2{fill:#c46d16;}.cls-3{fill:#e8810b;}</style></defs><rect class="cls-3" x="0" width="400" height="400"/><path class="cls-2" d="M165.83,144.26c-21.07,7.57-35.66,29.66-35.44,52.05s14.6,43.74,34.81,53.38c20.2,9.64,45.22,7.65,64.28-4.08,10.79,16.45,23.61,31.57,38.07,44.9,4.86,4.48,10.82,9.05,17.36,8.09,7.83-1.16,12.47-10.29,11.35-18.13s-6.38-14.41-11.88-20.11c-6.82-7.07-14.32-13.49-22.36-19.12-5.08-3.56-10.75-7.29-12.57-13.23-2.35-7.67,2.65-15.38,5.73-22.79,8.39-20.2,1.33-45.69-16.26-58.69-10.37-7.66-23.43-10.99-36.3-11.62-12.88-.63-25.73,1.26-38.48,3.14"/><g><path class="cls-1" d="M301.75,217.62c-11.91-3.07-23.81-1.05-35.59-1.45-1.59-.05-3.27,.94-4.8,1.69-.97,.48-1.58,.63-2.26-.33-1.06-1.49-2.03-1-2.94,.2-1.76,2.33-1.58,3.57-.27,6.31,.72,1.5,.51,3.44,.78,5.18,.11,.68,.33,1.36,.61,2,.12,.28,.52,.44,.79,.65,1.45,1.15,2.9,2.29,4.72,3.73,0-2.83-.03-5.28,0-7.73,.06-3.89,1.42-5.53,5.34-5.58,8.77-.12,17.54-.07,26.3,.07,3.44,.06,4.96,1.78,4.98,5.28,.05,14.08,0,28.17,.1,42.25,.01,1.87,.42,3.82,1.05,5.6,1.7,4.85,1.72,9.57-.23,14.35-.5,1.24-.78,2.66-.79,3.99-.08,11.12-.04,22.24-.1,33.36-.02,4.5-1.39,5.72-5.86,5.76-8.08,.06-16.16,.19-24.23,.26-4.87,.04-6.58-1.7-6.58-6.62,0-11.12-.08-22.24,.06-33.36,.03-2.52-.63-4.39-2.59-5.91-1.06-.83-2-1.81-3.34-3.05-.06,1.21-.12,1.93-.12,2.66,0,13.26,0,26.52-.02,39.78,0,4.88-1.44,6.26-6.29,6.27-8.35,.03-16.71,.07-25.06,.16-3.5,.04-5.36-1.79-5.37-5.57-.02-15.33,0-30.66,0-46,0-7.6,0-15.19,0-22.79,0-1.16,0-2.31,0-3.93-1.87,.57-3.39,.94-4.81,1.53-.4,.17-.71,.95-.76,1.49-.14,1.37-.05,2.76-.17,4.14-.24,2.66-.53,2.9-3.19,2.9-8.22,0-16.44,0-24.65,0-13.81,0-27.62,0-41.43,0-3.12,0-3.13-.06-3.18-3.28-.08-4.69-.17-9.38-.35-14.07-.19-4.88-2.96-8.15-6.87-10.68-5.8-3.75-12.27-5.72-19.01-6.63-6.42-.86-12.9-1.29-19.36-1.73-3.39-.23-3.42-.05-2.87-3.34,1.65-10.01,3.31-20.01,4.98-30.01,3.42-20.55,6.83-41.1,10.26-61.65,.29-1.77,.62-3.53,.99-5.29,1.38-6.53,6.22-10.54,12.94-10.55,15.95-.04,31.9-.02,47.86-.02,44.68,0,89.36,0,134.04,0,5.36,0,9.02,2.53,11.28,7.28,1.24,2.62,1.08,5.36,.61,8.12-4.07,23.72-8.14,47.45-12.21,71.17-.63,3.67-1.22,7.35-1.85,11.02-.15,.86-.36,1.71-.51,2.39Zm-49-20.89c-.46-3.97-.62-8-1.42-11.89-5.78-28.11-32.35-47.01-60.68-43.32-25.32,3.3-45.79,24.93-47.37,50.38-1.27,20.38,6.4,36.86,22.87,48.93,12.17,8.92,25.96,11.79,40.84,9.45,8.06-1.27,15.39-4.36,21.99-9.1,1.46-1.05,2.29-.91,3.4,.41,1.38,1.63,3.05,3,4.46,4.61,.51,.58,.93,1.57,.82,2.3-.48,3.41,.43,6.28,2.85,8.7,2.1,2.1,4.23,4.17,6.32,6.28,9.24,9.31,18.46,18.64,27.72,27.93,2.38,2.39,5.4,3.4,8.71,2.99,5.01-.63,8.61-3.4,10.4-8.09,1.76-4.63,.26-8.69-3.08-12.12-3.71-3.81-7.49-7.54-11.25-11.31-7.65-7.68-15.3-15.37-22.95-23.05-1.67-1.68-3.72-3.21-6.02-2.64-2.82,.7-4.21-.69-5.71-2.46-.76-.9-1.53-1.81-2.44-2.54-1.54-1.23-1.4-2.24-.26-3.78,6.97-9.38,10.52-19.93,10.8-31.69Zm-23.5,53.68c-1.18,.23-1.99,.84-1.99,2.41,.04,10.49,.05,20.98,.05,31.48,0,1.9,.93,2.8,2.79,2.8,5.45,0,10.91,0,16.36,.02,1.94,0,2.72-.94,2.67-2.83-.06-2-.08-4.01,.03-6,.08-1.59-.52-2.74-1.64-3.82-3.43-3.31-6.81-6.66-10.15-10.05-1.03-1.05-2.09-1.59-3.62-1.54-2.51,.07-3.39-1.39-2.58-3.79,.24-.71,.28-1.59,.09-2.31-.55-2.05-1.26-4.06-2-6.37Zm62.14,14.42l.64-.45c.03-.61,.1-1.21,.1-1.82,0-7.18,0-14.36-.01-21.54,0-2,.02-4.01-.07-6.01-.07-1.54-.76-2.72-2.48-2.74-5.66-.05-11.32-.11-16.98,.04-.82,.02-2.28,1.15-2.31,1.81-.22,4.64-1.38,9.57,3.52,12.96,1.31,.91,2.41,1.65,4.04,1.59,2.48-.09,4.97-.03,7.46,0,1.57,.02,2.74,.65,2.78,2.39,.04,1.87-1.17,2.5-2.84,2.52-1.33,.02-2.66,0-3.99,0l-.17,.66c3.44,3.53,6.88,7.05,10.32,10.58Zm-19.36,48.5c0,5.37,4.09,9.4,9.49,9.35,4.76-.04,8.91-4.28,8.95-9.12,.04-5.17-4.38-9.64-9.46-9.57-4.74,.07-8.98,4.48-8.98,9.34Zm-24.49,.05c0-5.27-3.79-9.23-8.83-9.22-5.29,0-9.43,4.05-9.42,9.22,0,5.1,4.17,9.32,9.16,9.28,5.25-.04,9.1-3.96,9.09-9.28Z"/><path class="cls-1" d="M87.8,214.41c-.22-1.29-.62-2.57-.63-3.86-.06-24.93-.08-49.87-.09-74.8,0-18.1,0-36.19,0-54.29,0-8.71,6.13-14.87,14.88-14.89,19.4-.03,38.8-.01,58.2,0,6.67,0,12.03,2.63,15.93,8.1,1.52,2.14,3.04,4.28,4.61,6.38,3.16,4.25,7.22,6.47,12.71,6.45,28.59-.09,57.18,0,85.77-.03,5.34,0,10.08,1.31,13.18,5.92,1.31,1.94,2.36,4.29,2.72,6.58,.53,3.31,.32,6.74,.43,10.12,.05,1.48-.89,1.61-2.05,1.61-6.56-.02-13.12,0-19.68,0-19.89,0-39.78-.02-59.67,0-14.91,.02-29.82,.13-44.73,.13-15.46,0-30.93-.07-46.39-.13-10.66-.04-17.67,5.87-19.51,16.72-4.08,24.01-8.08,48.04-12.12,72.05-.66,3.95-1.35,7.89-2.05,11.83-.13,.71-.4,1.39-.61,2.09l-.92,.02Z"/><path class="cls-1" d="M305.58,278.12c0-16.02,0-32.03,0-48.05,0-6.73,1.1-7.85,7.78-7.87,7.04-.02,14.08-.02,21.12,0,1.31,0,2.63,.08,3.92,.27,2.3,.34,3.71,1.73,4.11,4.03,.2,1.15,.27,2.33,.27,3.5,.01,32.03,0,64.07,0,96.1,0,.89-.03,1.8-.16,2.68-.45,2.88-1.99,4.21-4.93,4.21-7.46,.02-14.91,0-22.37,0-1.17,0-2.34,.11-3.51,.15-4.2,.13-5.99-1.54-6.02-5.75-.09-14.01-.14-28.02-.21-42.03-.01-2.42,0-4.83,0-7.25Zm7.51-18.4h-.03c0,7.66,0,15.32,0,22.98,0,4.06,.35,4.42,4.31,4.42,4.76,0,9.52,.02,14.29,0,2.89-.01,3.58-.68,3.59-3.5,0-16.01,0-32.03-.01-48.04,0-2.56-.77-3.32-3.35-3.33-5.04-.03-10.08-.03-15.11-.02-2.95,0-3.67,.71-3.67,3.67-.02,7.94,0,15.88,0,23.81Zm20.2,53.78c.02-5.29-4.05-9.56-9.1-9.52-4.9,.04-9.14,4.36-9.16,9.34-.02,5.05,4.17,9.37,9.08,9.36,5.13,0,9.16-4.03,9.18-9.18Z"/><path class="cls-1" d="M57.46,278.51c6.58,6.07,14.38,7.61,22.25,8.76,14.41,2.12,28.76,2.02,42.92-1.82,4.6-1.25,9-3,12.92-6.61,.08,1.15,.16,1.87,.17,2.59,.02,4.42-.07,8.84,.08,13.26,.1,2.91-1.15,4.87-3.52,6.31-4.3,2.63-9.01,4.14-13.92,5.1-15.31,3.02-30.6,2.83-45.82-.61-4.52-1.02-8.91-2.48-12.67-5.37-1.83-1.41-2.72-3.14-2.66-5.51,.12-4.56,.05-9.12,.07-13.68,0-.66,.09-1.31,.17-2.42Zm64.54,16.22c-.01,1.77,1.03,2.81,2.81,2.83,1.78,.01,3.17-1.32,3.18-3.06,0-1.56-1.48-2.96-3.12-2.93-1.56,.03-2.86,1.46-2.87,3.17Z"/><path class="cls-1" d="M57.49,304.12c9.68,7.31,20.7,8.58,31.71,9.39,10.41,.76,20.84,.31,31.04-2.34,2.66-.69,5.34-1.48,7.85-2.58,2.49-1.09,4.79-2.64,7.4-4.12,.08,.67,.24,1.43,.24,2.19,.03,4.35-.06,8.7,.05,13.05,.08,2.97-1.21,4.97-3.68,6.44-5.63,3.34-11.86,4.93-18.2,5.92-14.69,2.29-29.32,1.86-43.69-2.16-3.28-.92-6.42-2.48-9.47-4.04-2.46-1.25-3.53-3.52-3.48-6.36,.07-4.28,0-8.56,.02-12.84,0-.73,.11-1.45,.2-2.54Zm67.24,18.31c1.94,.09,3.25-1.01,3.26-2.86,0-1.67-.83-2.72-2.55-2.89-1.78-.17-3.33,1.25-3.37,3.08-.04,1.8,.94,2.61,2.66,2.67Z"/><path class="cls-1" d="M57.87,253.73c3.42,3.63,7.83,5.35,12.44,6.62,11.79,3.25,23.82,3.78,35.93,2.87,4.46-.33,8.91-1.04,13.3-1.91,2.89-.57,5.76-1.52,8.46-2.71,2.6-1.15,4.96-2.84,7.59-4.39,.05,.52,.17,1.22,.18,1.93,.02,4.56-.11,9.12,.04,13.67,.09,2.6-1.01,4.32-3.03,5.7-4.31,2.94-9.2,4.42-14.22,5.44-16.57,3.37-33.08,3.11-49.38-1.55-3.13-.89-6.08-2.57-8.96-4.16-2.12-1.17-3.06-3.19-2.99-5.74,.11-4.28,.01-8.56,.02-12.85,0-.88,.08-1.75,.12-2.63l.5-.31Zm67.3,12.82c-1.82,.03-3.14,1.36-3.07,3.14,.06,1.76,1.01,2.62,2.75,2.62,1.94,0,3.07-1.14,3.05-3.08-.01-1.64-1.09-2.7-2.74-2.68Z"/><path class="cls-1" d="M97.06,234.68c10.3,.04,20.44,.99,30.08,4.86,2.32,.93,4.63,2.24,6.51,3.87,2.39,2.08,2.36,4.47-.17,6.33-2.51,1.84-5.37,3.6-8.33,4.34-6.4,1.6-12.92,3.01-19.47,3.64-11.1,1.07-22.22,.44-33.08-2.31-3.58-.91-7-2.47-10.43-3.89-1.04-.43-1.96-1.29-2.78-2.11-1.85-1.83-1.99-4.1-.07-5.81,1.62-1.44,3.52-2.7,5.5-3.57,6.37-2.82,13.19-3.98,20.07-4.66,4.05-.4,8.12-.47,12.18-.69Z"/><path class="cls-1" d="M197.99,151.95c23.8-.11,43.69,19.94,43.81,44.07,.13,25.48-21.39,44.14-43.43,44.31-24.47,.19-44.34-20.16-44.57-42.98-.26-25.29,19.35-45.28,44.19-45.4Zm-35.29,42.34c-.09,2.95,1.28,4.78,3.62,4.86,2.12,.07,3.46-1.59,3.59-4.44,.56-12.25,9.6-23.26,21.49-26.13,1.6-.39,3.25-.59,4.88-.86,2.39-.4,3.62-1.76,3.47-3.84-.15-2.13-1.71-3.38-4.18-3.32-.48,.01-.97,.05-1.43,.17-3.12,.83-6.32,1.45-9.33,2.57-12.2,4.52-21.72,17.98-22.1,31Z"/><path class="cls-1" d="M281.15,239.58c1.51,0,3.02-.01,4.53,0,1.68,.02,2.25,1.1,2.3,2.57,.05,1.52-.74,2.32-2.24,2.34-2.95,.03-5.91,.04-8.86,0-1.64-.02-2.52-.84-2.5-2.58,.03-1.79,1.01-2.41,2.64-2.38,1.37,.03,2.75,0,4.12,0v.04Z"/><path class="cls-1" d="M324.16,253.57c-1.58,0-3.16,.02-4.74,0-1.54-.03-2.23-.97-2.24-2.4,0-1.42,.64-2.44,2.18-2.46,3.23-.05,6.46-.06,9.69,.02,1.48,.03,2.18,.97,2.24,2.44,.06,1.54-.72,2.35-2.18,2.43-1.64,.08-3.3,.02-4.95,.02v-.03Z"/><path class="cls-1" d="M324.07,244.51c-1.52,0-3.04,.05-4.55-.01-1.52-.07-2.2-.99-2.18-2.46,.02-1.43,.58-2.42,2.17-2.44,3.1-.03,6.21-.05,9.31-.04,1.7,0,2.27,1.09,2.27,2.58,0,1.49-.76,2.34-2.27,2.38-1.59,.04-3.17,0-4.76,0h0Z"/><path class="cls-1" d="M324.05,262.51c-1.58,0-3.17,.02-4.75,0-1.48-.03-2.05-.97-2.08-2.31-.03-1.33,.51-2.38,1.97-2.41,3.3-.08,6.61-.09,9.92-.03,1.55,.03,2.11,1.11,2.07,2.54-.04,1.39-.72,2.2-2.17,2.21-1.65,.01-3.31,0-4.96,0Z"/></g></svg>