<?xml version="1.0" encoding="UTF-8"?><svg id="Capa_1" xmlns="http://www.w3.org/2000/svg" viewBox="0 0 400 400"><defs><style>.cls-1{fill:#fff;}.cls-2{fill:#277235;}.cls-3{fill:#358e4a;}</style></defs><rect class="cls-3" x="0" width="400" height="400"/><g><path class="cls-2" d="M83.54,283.34c-2.89,5.08-4.56,10.86-4.81,16.7-.26,5.97,.98,12.05,3.9,17.25s7.59,9.49,13.18,11.6c4.06,1.54,8.82,1.85,12.62-.25,3.57-1.97,5.8-5.81,6.76-9.77s.81-8.1,.66-12.17c-.18-4.8-.42-9.81-2.8-13.98-2.99-5.24-8.94-8.24-14.91-9.13s-12.04,.03-18,.96"/><path class="cls-2" d="M106.76,105.22s-10.21,85.78,27.12,131.11,65.97,57.97,65.97,57.97c0,0,32.75-14.62,36.5-18.52s52.19-67.01,53.97-85.23,3.11-85.33,3.11-85.33l-49.62-14.67-41.47-24s-32.91,25.33-39.58,26.67-56.01,12-56.01,12Z"/></g><g><path class="cls-1" d="M301.84,122.31c.25,28.06-2.83,55.73-10.79,82.75-9,30.55-26.51,55.16-51.5,74.64-11.33,8.83-23.63,16.03-36.58,22.16-1.84,.87-3.53,1.05-5.5,.13-27.28-12.78-50.99-30.03-68.62-54.87-10.35-14.59-17.04-30.84-21.65-48.03-5.05-18.83-8.12-38-8.88-57.47-.48-12.51-.35-25.04-.39-37.56-.01-4.9,2.3-7.31,7.23-7.93,20.04-2.51,39.35-7.64,57.78-15.96,11.31-5.11,21.89-11.46,31.87-18.82,3.72-2.74,6.36-2.74,10.07-.01,24.06,17.71,50.99,28.5,80.39,33.36,3.56,.59,7.14,1.08,10.69,1.76,3.85,.74,5.77,2.9,5.84,6.81,.11,6.34,.03,12.68,.03,19.03Zm-13.58,4.67c0-4.82-.08-9.64,.03-14.46,.06-2.45-1.09-3.41-3.35-3.77-29.32-4.69-56.73-14.31-81.25-31.41-3.75-2.61-3.77-2.59-7.58,.05-24.48,16.98-51.71,26.86-81,31.43-3.09,.48-3.49,.84-3.57,3.97-.64,24.67,1.51,49.09,6.69,73.22,3.37,15.71,8.46,30.85,16.65,44.72,14.99,25.37,37.14,42.84,62.99,56.08,1.54,.79,2.87,.71,4.3-.16,7.54-4.58,15.33-8.8,22.6-13.76,26.21-17.87,44.3-41.81,53.2-72.45,6.97-24,9.61-48.6,10.29-73.48Z"/><path class="cls-1" d="M96.4,340.58c-10.6,0-21.21-.31-31.79,.1-8.42,.32-12.89-5.05-12.82-12.67,.1-11.16,.01-22.32,.02-33.49,0-5.14-.19-10.29,.14-15.41,.46-7.13,4.44-10.73,11.59-10.77,14.21-.07,28.43-.02,42.64-.03,7.47,0,14.95,.24,22.4-.07,8.44-.35,12.69,5.28,12.72,12.64,.04,12.45,0,24.89,0,37.34,0,3.77,.06,7.55,0,11.32-.12,6.57-4.62,10.99-11.16,11-11.24,.02-22.48,0-33.73,0h0Zm7.25-18.95c-.66-4.45-1.23-8.57-1.9-12.67-.27-1.64,.04-2.74,1.44-3.9,4.51-3.74,4.77-10.56,.76-14.78-4.05-4.26-10.66-4.28-14.81-.03-4.01,4.11-3.88,11.16,.53,14.81,1.6,1.33,1.7,2.58,1.4,4.35-.67,4-1.18,8.03-1.79,12.22h14.38Z"/><path class="cls-1" d="M284.5,238.11c2.09-4.33,4.27-8.43,6.07-12.68,1.66-3.9,3-7.95,4.32-11.99,.42-1.3,.97-1.81,2.33-1.81,15.02,.05,30.04,.03,45.07,.1,3.73,.02,5.79,2.15,5.85,5.89,.07,4.98,.07,9.96-.02,14.94-.06,3.46-2.13,5.69-5.55,5.7-19.12,.06-38.24,.03-57.36,.02-.16,0-.31-.07-.71-.18Zm37.09-13.07c-.02-2.93-2.47-5.28-5.43-5.22-2.75,.05-5.17,2.6-5.08,5.34,.09,2.87,2.38,5.02,5.35,5.02,2.94,0,5.18-2.23,5.16-5.14Zm11.12,5.12c2.75-.04,5.09-2.34,5.13-5.03,.03-2.86-2.5-5.37-5.39-5.35-2.78,.02-5.04,2.43-5.04,5.37,0,2.86,2.32,5.06,5.31,5.02Z"/><path class="cls-1" d="M76.4,263.58c-4,0-7.6,.05-11.2-.06-.45-.01-1.23-.82-1.25-1.29-.6-11.33,.04-22.29,7.99-31.55,8.41-9.79,21.45-13.84,33.74-9.9,1.1,.35,2.35,1.48,2.77,2.54,4.92,12.31,11.61,23.57,19.6,34.12,.97,1.28,.84,3.44,1.05,5.21,.03,.24-.9,.84-1.39,.85-3.21,.09-6.42,.03-9.63,.08-1.62,.02-1.48-1.06-1.5-2.12-.08-4.09,.21-8.23-.34-12.25-1.53-11.13-10.41-17.95-21.8-17.14-9.91,.71-17.81,9.36-18.03,19.83-.08,3.76-.01,7.52-.01,11.67Z"/><path class="cls-1" d="M187.67,190.23c5.15-4.82,10.24-9.25,14.95-14.06,11.3-11.52,22.41-23.23,33.63-34.83,2.65-2.74,2.73-2.66,5.51,.11,2.79,2.78,5.63,5.49,8.45,8.24,2.37,2.31,2.45,2.74,.2,5.07-15.3,15.92-30.63,31.82-45.95,47.73-4.34,4.51-8.69,9.02-13.04,13.52-2.04,2.12-3.28,2.24-5.27,.25-10.87-10.82-21.69-21.7-32.56-32.51-1.51-1.5-.99-2.6,.24-3.84,2.99-3.02,5.96-6.08,8.92-9.14,2.38-2.46,2.84-2.49,5.21-.12,6.02,6.02,12.03,12.04,18.05,18.06,.68,.67,1.41,1.29,1.67,1.52Z"/><path class="cls-1" d="M348.21,314.91c-.02-4.9-1.98-6.83-6.91-6.83-15.02-.01-30.04,0-45.05,0-15.18,0-30.36-.01-45.54,0-4.85,0-6.86,2.03-6.88,6.9-.02,6.26-.01,12.53,0,18.79,.02,4.61,2.19,6.78,6.79,6.78,30.28,0,60.55,.01,90.83,0,4.48,0,6.69-2.17,6.72-6.62,.04-6.34,.05-12.69,.03-19.03Zm-89.53,13.6c0,1.38-1.12,2.51-2.51,2.51h0c-1.38,0-2.51-1.12-2.51-2.51v-8.18c0-1.38,1.12-2.51,2.51-2.51h0c1.38,0,2.51,1.12,2.51,2.51v8.18Zm9.18,0c0,1.38-1.12,2.51-2.51,2.51s-2.51-1.12-2.51-2.51v-8.18c0-1.38,1.12-2.51,2.51-2.51s2.51,1.12,2.51,2.51v8.18Zm9.29,0c0,1.38-1.12,2.51-2.51,2.51s-2.51-1.12-2.51-2.51v-8.18c0-1.38,1.12-2.51,2.51-2.51s2.51,1.12,2.51,2.51v8.18Zm9.03,0c0,1.38-1.12,2.51-2.51,2.51h0c-1.38,0-2.51-1.12-2.51-2.51v-8.18c0-1.38,1.12-2.51,2.51-2.51h0c1.38,0,2.51,1.12,2.51,2.51v8.18Zm30.22,1.37c-3.2-.05-5.56-2.52-5.47-5.73,.08-2.9,2.57-5.26,5.48-5.21,2.97,.05,5.54,2.62,5.53,5.53-.01,3.05-2.48,5.46-5.54,5.41Zm16.35-.04c-3.13-.06-5.55-2.44-5.56-5.44,0-3.05,2.46-5.51,5.5-5.48,3.1,.03,5.39,2.41,5.36,5.57-.03,3-2.41,5.41-5.3,5.35Z"/><path class="cls-1" d="M348.14,281.27c-.09-3.33-2.25-5.24-5.6-5.35-1.44-.05-2.89-.03-4.34-.03-25.62,0-51.24,.1-76.87-.1-2.5-.02-4.78,.15-6.85,.88-3.38,3.15-6.92,6.2-10.61,9.13-.06,.34-.09,.7-.07,1.1,.13,2.89,0,5.78,.02,8.67,.02,5.04,1.82,6.89,6.78,6.9,15.1,.02,30.2,0,45.3,0h0c4.82,.01,9.64,.01,14.46,.01,10.44,0,20.88,.02,31.32-.01,4.06-.01,6.38-1.93,6.47-5.56,.13-5.22,.12-10.44-.02-15.66Zm-89.46,10.59c0,1.36-1.1,2.45-2.45,2.45h-.11c-1.36,0-2.45-1.1-2.45-2.45v-5.51c0-1.36,1.1-2.45,2.45-2.45h.11c1.36,0,2.45,1.1,2.45,2.45v5.51Zm9.18,0c0,1.36-1.1,2.45-2.45,2.45h-.11c-1.36,0-2.45-1.1-2.45-2.45v-5.51c0-1.36,1.1-2.45,2.45-2.45h.11c1.36,0,2.45,1.1,2.45,2.45v5.51Zm9.29,0c0,1.36-1.1,2.45-2.45,2.45h-.11c-1.36,0-2.45-1.1-2.45-2.45v-5.51c0-1.36,1.1-2.45,2.45-2.45h.11c1.36,0,2.45,1.1,2.45,2.45v5.51Zm9.03,0c0,1.36-1.1,2.45-2.45,2.45h-.11c-1.36,0-2.45-1.1-2.45-2.45v-5.51c0-1.36,1.1-2.45,2.45-2.45h.11c1.36,0,2.45,1.1,2.45,2.45v5.51Zm30.27,2.56c-2.95,0-5.27-2.2-5.33-5.03-.06-2.98,2.31-5.39,5.27-5.33,2.86,.05,5.18,2.38,5.18,5.2,0,3.02-2.12,5.16-5.11,5.16Zm16.12,.03c-2.99-.07-5.21-2.31-5.15-5.19,.07-2.98,2.29-5.18,5.19-5.16,2.91,.02,5.21,2.32,5.2,5.19,0,2.82-2.45,5.22-5.25,5.16Z"/><path class="cls-1" d="M348.15,250.3c-.06-4.29-2.07-6.31-6.4-6.36-6.18-.07-12.37-.04-18.55-.05-13.33-.03-26.67-.08-40-.04-.65,0-1.46,.17-2.1,.49-1.71,2.77-3.5,5.48-5.38,8.13,.62,.44,1.04,1.16,1.04,1.99v1.09c.09,.7,.06,1.42,0,2.14v2.28c0,1.36-1.1,2.45-2.45,2.45h-.11c-1.36,0-2.45-1.1-2.45-2.45v-2.13c-3.38,4.35-7,8.53-10.86,12.55,.93,.07,1.66,.13,2.39,.13,16.71,.02,33.41,.05,50.12,.05,9.48,0,18.96,.02,28.43-.09,4.37-.05,6.31-2.12,6.35-6.43,.04-4.58,.04-9.16-.02-13.74Zm-61.97,9.67c0,1.36-1.1,2.45-2.45,2.45h-.11c-1.36,0-2.45-1.1-2.45-2.45v-5.51c0-1.36,1.1-2.45,2.45-2.45h.11c1.36,0,2.45,1.1,2.45,2.45v5.51Zm30.22,2.48c-2.96,0-5.24-2.23-5.25-5.14-.01-2.79,2.42-5.28,5.18-5.31,2.72-.03,5.19,2.45,5.24,5.25,.05,2.9-2.24,5.19-5.17,5.19Zm16.28-.03c-2.97,0-5.23-2.2-5.23-5.07,0-2.98,2.22-5.36,5-5.34,2.86,.01,5.34,2.53,5.32,5.41-.02,2.72-2.35,5.02-5.09,5.01Z"/></g></svg>