<?xml version="1.0" encoding="UTF-8"?><svg id="Capa_1" xmlns="http://www.w3.org/2000/svg" viewBox="0 0 936.72 112.68"><defs><style>.cls-1{fill:#f5333f;}.cls-2{fill:#53575a;}</style></defs><g><path class="cls-2" d="M218.37,21.78v23.99h53.34v20.67h-53.34v24.46h60.91v20.67h-85.85V1.1h84.11V21.78h-59.18Z"/><path class="cls-2" d="M398.59,111.57h-29.83l-26.04-36.77-25.56,36.77h-29.19l39.61-56.5L290.65,1.1h29.04l23.04,33.77L365.93,1.1h29.51l-36.77,52.87,39.93,57.6Z"/><path class="cls-2" d="M434.41,90.11l-8.68,21.46h-25.72L447.98,1.1h25.72l47.19,110.47h-26.67l-8.68-21.46h-51.13Zm25.72-62.97l-17.52,42.92h34.88l-17.36-42.92Z"/><path class="cls-2" d="M623.94,18.62l-14.52,17.68c-7.58-8.68-18.46-14.36-28.72-14.36-18.94,0-33.61,14.68-33.61,33.93s14.68,34.09,33.61,34.09c9.94,0,20.83-5.05,28.72-12.94l14.68,15.94c-11.68,11.99-28.56,19.73-44.66,19.73-32.98,0-57.92-24.46-57.92-56.49S546.93,.32,580.39,.32c15.94,0,32.67,7.1,43.55,18.31Z"/><path class="cls-2" d="M686.59,22.25V111.57h-24.93V22.25h-33.61V1.1h92.32V22.25h-33.77Z"/><path class="cls-2" d="M831.46,65.33c0,29.19-19.1,47.34-49.55,47.34s-50.18-18.15-50.18-47.34V1.1h24.93V65.33c0,15.94,10.42,25.57,25.25,25.57s24.62-9.63,24.62-25.57V1.1h24.93V65.33Z"/><path class="cls-2" d="M936.09,11.99l-9.63,20.67c-11.68-6.94-25.57-11.36-34.4-11.36-8.36,0-14.04,3-14.04,9,0,20.36,58.86,9,58.71,48.76,0,21.62-18.78,33.3-43.24,33.3-18.15,0-36.3-6.94-48.76-17.52l9.94-20.36c11.36,10.1,27.46,16.57,39.14,16.57,10.26,0,16.41-3.79,16.41-10.57,0-20.83-58.86-8.68-58.86-47.82,0-20.04,17.2-32.67,42.77-32.67,15.47,0,30.93,4.73,41.98,11.99Z"/></g><path class="cls-1" d="M0,21.78V1.1H168.96V111.57H103.33v-20.61l40.69-.02v-24.59l-102.65-.04v-20.54h102.66V21.78H0Z"/></svg>